<?xml version="1.0" standalone="no"?>
<!DOCTYPE svg PUBLIC "-//W3C//DTD SVG 20010904//EN"
 "http://www.w3.org/TR/2001/REC-SVG-20010904/DTD/svg10.dtd">
<svg version="1.0" xmlns="http://www.w3.org/2000/svg"
 width="3464.000000pt" height="1155.000000pt" viewBox="0 0 3464.000000 1155.000000"
 preserveAspectRatio="xMidYMid meet">

<g transform="translate(0.000000,1155.000000) scale(0.100000,-0.100000)"
fill="#000000" stroke="none">
<path d="M5601 8604 c-31 -66 -31 -67 -31 -233 l0 -166 29 -33 29 -33 109 70
c59 38 150 95 200 128 51 32 93 65 93 73 -1 8 -38 38 -83 66 -45 28 -133 83
-195 123 -62 39 -114 71 -116 71 -2 0 -18 -30 -35 -66z"/>
<path d="M6349 8436 c-2 -3 -51 -10 -108 -15 -58 -6 -107 -13 -109 -16 -5 -5
4 -28 29 -77 5 -10 9 -24 9 -33 0 -8 14 -24 30 -37 25 -18 30 -28 28 -58 -2
-27 0 -34 12 -31 8 1 42 5 75 8 37 4 71 14 89 26 17 12 48 24 70 27 40 5 41 6
44 47 3 36 -3 51 -39 103 -41 57 -45 60 -84 60 -23 0 -44 -2 -46 -4z"/>
<path d="M2408 8287 c-61 -28 -69 -42 -152 -292 -20 -60 -68 -203 -106 -317
-39 -114 -70 -212 -70 -218 0 -14 53 -92 128 -188 34 -45 62 -90 62 -102 0
-11 -9 -53 -21 -93 -31 -107 -37 -128 -48 -167 -5 -19 -17 -62 -26 -95 -9 -33
-23 -87 -31 -120 -20 -81 -30 -118 -55 -200 -39 -130 -47 -174 -38 -213 5 -20
9 -58 9 -84 0 -25 4 -68 9 -95 14 -69 30 -183 42 -298 6 -55 15 -139 20 -187
5 -49 13 -127 18 -175 5 -49 17 -144 26 -213 8 -69 18 -150 21 -180 3 -30 9
-80 14 -110 5 -30 14 -95 19 -145 60 -519 63 -535 98 -535 8 0 31 -7 51 -16
65 -28 76 -32 157 -59 44 -14 89 -30 100 -34 11 -5 38 -14 60 -20 36 -11 81
-28 140 -52 11 -4 38 -13 60 -20 22 -7 69 -23 105 -36 36 -12 73 -23 82 -23 9
0 20 -4 23 -10 3 -5 14 -10 23 -10 15 0 120 -36 177 -60 11 -5 36 -13 55 -19
19 -6 70 -23 113 -37 102 -33 119 -31 132 23 6 23 13 45 18 49 14 14 7 35 -28
87 -40 60 -44 86 -14 113 18 16 37 19 139 19 l118 0 39 -62 c35 -56 43 -63
103 -87 61 -23 89 -30 117 -27 7 0 40 58 74 129 91 191 92 191 125 230 28 33
37 37 78 36 26 0 63 -6 84 -12 78 -24 209 -54 250 -59 51 -6 63 2 95 65 44 86
62 112 76 110 7 -2 27 -31 45 -65 17 -34 37 -63 43 -63 7 0 37 16 67 35 30 19
60 35 67 35 7 0 9 15 5 48 -18 129 -18 148 -3 161 13 10 23 8 58 -10 l43 -21
48 53 c48 55 57 76 37 96 -7 7 -9 19 -5 28 5 15 21 16 112 14 l106 -4 45 90
c50 101 48 67 21 335 -6 69 -12 157 -13 195 l0 70 45 7 c111 17 160 27 169 32
17 11 165 39 284 55 49 6 75 15 93 32 13 12 24 26 24 30 0 5 12 34 26 66 14
32 30 67 34 78 4 11 29 67 55 125 46 103 68 152 86 198 15 36 26 64 53 125 14
32 26 65 26 73 0 14 -218 283 -254 313 -9 7 -25 11 -36 8 -25 -6 -34 7 -21 31
8 16 -1 33 -56 98 -131 158 -170 196 -195 189 -49 -15 -88 -34 -88 -43 0 -26
-31 -81 -43 -76 -7 2 -26 29 -43 59 -16 30 -36 55 -44 56 -45 2 -258 -2 -342
-7 l-97 -7 -61 63 c-33 35 -88 95 -123 134 -34 39 -69 78 -77 86 -57 55 -73
82 -81 130 -5 30 -19 66 -34 85 -32 43 -32 49 5 41 17 -3 43 -9 58 -12 23 -5
36 1 73 35 34 32 52 41 80 41 69 0 60 25 -45 127 -53 51 -96 97 -96 104 0 6
16 34 35 60 19 27 35 58 35 69 0 19 -40 76 -194 275 -61 79 -61 79 -226 90
-52 3 -179 13 -281 22 -189 16 -239 14 -239 -12 0 -27 -21 -26 -55 4 -20 17
-45 33 -58 36 -12 3 -179 4 -372 3 l-350 -3 -17 -35 c-10 -19 -20 -39 -22 -45
-2 -5 -26 11 -53 38 l-49 47 -324 -1 c-227 0 -333 -4 -352 -12z m1527 -54 c58
-19 109 -67 355 -338 85 -93 163 -179 173 -190 10 -11 25 -32 32 -46 12 -22
12 -29 -1 -48 -18 -25 -53 -27 -239 -11 -66 5 -205 14 -310 20 -169 10 -194
14 -231 35 -31 18 -332 333 -466 487 -23 26 -16 74 13 100 17 15 49 16 322 11
236 -4 313 -8 352 -20z m-883 2 c35 -13 70 -42 164 -138 66 -67 153 -160 194
-206 41 -46 96 -105 123 -131 36 -36 47 -55 47 -78 0 -46 -23 -54 -122 -43
-46 5 -162 12 -258 16 -253 9 -270 13 -344 90 -34 34 -99 109 -146 165 -47 56
-117 141 -157 189 -71 85 -85 115 -61 139 20 20 501 17 560 -3z m2640 -1405
c37 -86 73 -159 79 -159 7 -1 26 44 31 74 3 14 11 19 26 18 21 -3 22 1 22 62
l0 65 31 0 c19 0 38 -8 48 -19 9 -10 51 -60 94 -109 42 -50 77 -95 77 -101 0
-6 -29 -42 -65 -80 -36 -38 -62 -71 -58 -74 4 -3 46 12 93 34 47 21 90 39 97
39 11 0 52 -46 161 -181 35 -45 41 -83 15 -95 -20 -9 -145 -20 -340 -30 -130
-6 -132 -6 -177 20 -25 14 -86 72 -137 129 -51 56 -112 122 -135 147 -23 25
-57 63 -76 85 -19 22 -60 67 -91 100 -107 112 -94 128 111 135 89 3 152 1 161
-5 7 -5 22 -30 33 -55z m-491 23 c33 -16 85 -64 180 -165 73 -79 162 -175 198
-214 94 -101 161 -181 161 -192 0 -23 -36 -33 -161 -47 -74 -9 -170 -20 -215
-25 -44 -6 -122 -10 -173 -10 -97 0 -123 8 -188 57 -29 22 -314 325 -374 397
-13 17 -52 61 -87 98 -45 49 -62 75 -60 91 3 20 10 22 98 28 52 3 203 5 335 5
227 -1 243 -2 286 -23z m-873 -9 c63 -18 109 -61 338 -309 60 -66 150 -162
198 -214 69 -75 86 -99 84 -120 -4 -32 -29 -38 -232 -52 -83 -6 -203 -14 -267
-18 -216 -15 -243 -3 -403 189 -39 47 -112 132 -161 190 -50 58 -106 125 -125
150 -19 25 -51 64 -72 87 -38 42 -48 76 -27 89 6 4 97 10 203 14 337 12 403
11 464 -6z m-2201 -626 c-3 -8 -6 -5 -6 6 -1 11 2 17 5 13 3 -3 4 -12 1 -19z
m1524 -857 c148 -199 147 -198 291 -181 248 30 335 43 411 59 23 5 79 13 124
17 82 6 82 6 113 -24 25 -26 30 -38 30 -81 0 -27 -4 -52 -9 -55 -5 -3 -12 -18
-16 -33 -9 -38 -251 -522 -272 -546 -25 -27 -67 -47 -101 -47 -16 0 -67 13
-113 29 -46 16 -172 57 -279 91 -107 34 -211 68 -230 75 -19 8 -58 21 -86 30
-57 18 -78 36 -94 82 -9 25 -6 46 24 134 35 103 66 188 104 284 44 109 62 158
62 171 0 20 25 17 41 -5z m1549 -686 c-7 -8 -14 -15 -15 -15 -2 0 -5 7 -9 15
-4 10 1 15 16 15 17 0 18 -2 8 -15z m-1717 -29 c40 -14 101 -33 137 -44 181
-54 254 -76 345 -107 55 -18 124 -39 152 -46 69 -17 108 -56 107 -107 0 -43
-126 -309 -150 -319 -8 -3 -38 3 -67 14 -47 18 -59 29 -117 112 -50 70 -80
101 -131 135 -39 27 -81 66 -104 98 -22 30 -40 47 -43 40 -8 -26 23 -78 85
-144 35 -36 63 -71 63 -77 0 -14 -134 -15 -161 -1 -10 6 -36 29 -56 51 -34 35
-42 39 -70 33 -36 -7 -45 -24 -14 -24 22 0 81 -66 81 -91 0 -9 -9 -24 -20 -34
-28 -26 -25 -42 20 -106 43 -62 46 -74 28 -114 -14 -30 -27 -31 -98 -5 -30 12
-107 38 -170 60 -70 24 -122 48 -132 61 -20 23 -24 84 -9 121 5 13 37 97 71
188 101 270 109 287 143 309 18 12 34 21 35 21 2 0 36 -11 75 -24z m1562 -185
c16 -3 -36 -41 -55 -41 -17 0 -34 25 -26 38 4 6 50 8 81 3z"/>
<path d="M5137 8087 c-7 -18 6 -184 16 -193 8 -8 171 72 188 92 18 22 -23 79
-68 92 -68 20 -130 24 -136 9z"/>
<path d="M5835 7957 c-51 -53 -69 -65 -104 -70 -24 -3 -57 -17 -78 -34 -20
-15 -70 -53 -112 -83 -66 -48 -76 -60 -79 -89 -2 -19 1 -44 7 -55 10 -21 68
-184 79 -221 28 -101 92 -113 186 -35 26 22 51 38 55 36 4 -3 16 -32 27 -65
25 -81 64 -83 64 -4 0 19 4 24 16 19 9 -3 18 -6 20 -6 2 0 4 -37 4 -82 0 -97
10 -121 68 -165 53 -40 65 -40 139 -6 76 34 93 50 93 83 0 34 -18 42 -65 29
-20 -6 -39 -9 -41 -7 -2 2 5 28 16 56 11 29 20 70 20 92 0 65 29 46 45 -29 8
-39 17 -49 58 -70 26 -14 29 -13 66 23 44 43 40 22 57 343 l6 121 -33 17 c-19
10 -62 37 -97 61 -35 24 -65 44 -68 44 -3 0 -61 36 -130 80 -68 44 -131 80
-140 80 -9 0 -44 -29 -79 -63z m177 -39 c46 -28 119 -75 163 -104 44 -29 92
-58 108 -65 15 -7 27 -18 27 -25 0 -7 -42 -48 -92 -90 -51 -43 -115 -97 -142
-121 -26 -24 -58 -43 -70 -43 -19 0 -132 52 -211 98 -11 6 -67 34 -125 63
-109 53 -130 66 -130 80 0 4 28 27 63 50 34 23 75 53 90 66 38 30 56 29 90 -7
16 -16 33 -30 38 -30 6 0 7 -15 3 -35 -6 -34 -6 -34 35 -41 28 -4 45 -14 53
-28 26 -50 49 -42 35 13 -8 30 -18 43 -40 52 -20 9 -27 17 -24 31 4 12 -4 25
-24 39 -43 31 -39 65 13 111 24 21 46 38 50 38 4 0 45 -23 90 -52z"/>
<path d="M5205 7329 c-25 -17 -41 -20 -102 -15 -40 3 -73 4 -73 1 0 -3 14 -24
30 -47 17 -23 30 -51 29 -63 -3 -46 -3 -46 89 -43 l87 3 3 93 c3 103 -3 110
-63 71z"/>
<path d="M5492 7162 c-9 -6 -11 -20 -7 -45 11 -57 26 -71 67 -63 65 12 114 70
82 97 -17 14 -125 23 -142 11z"/>
<path d="M10493 6791 c-93 -24 -204 -105 -274 -200 l-25 -34 -38 101 -39 102
-48 0 -49 0 0 -1025 0 -1025 110 0 110 0 0 798 c0 893 -3 858 71 947 90 108
190 159 314 159 131 -1 203 -56 225 -173 6 -34 10 -366 10 -892 l0 -839 110 0
111 0 -3 888 c-3 812 -5 891 -21 939 -37 111 -114 191 -224 234 -47 18 -82 23
-183 25 -69 2 -139 -1 -157 -5z"/>
<path d="M12143 6790 c-68 -16 -148 -65 -209 -127 -35 -34 -65 -72 -69 -83 -3
-11 -10 -20 -14 -20 -5 0 -25 45 -46 100 l-38 101 -46 -3 -46 -3 -3 -1022 -2
-1023 110 0 109 0 3 818 3 817 23 47 c13 26 54 76 92 111 86 82 152 109 261
110 131 1 204 -52 228 -164 7 -33 11 -330 11 -894 l0 -845 110 0 110 0 0 858
c0 915 -1 937 -50 1031 -48 96 -143 165 -258 190 -59 12 -229 13 -279 1z"/>
<path d="M13650 6794 c-161 -31 -276 -111 -334 -234 l-31 -65 0 -760 0 -760
31 -65 c56 -119 151 -190 301 -227 92 -22 304 -22 396 0 180 44 287 149 322
314 21 99 21 1376 1 1475 -32 150 -115 242 -270 296 -62 22 -90 25 -231 28
-88 1 -171 0 -185 -2z m318 -199 c61 -19 106 -57 133 -112 l24 -48 0 -700 0
-700 -24 -49 c-26 -53 -86 -98 -156 -118 -70 -20 -232 -14 -297 11 -66 26
-122 81 -137 138 -14 50 -15 1384 -1 1432 34 119 158 178 345 164 39 -3 89
-11 113 -18z"/>
<path d="M16446 6784 c-81 -19 -168 -68 -217 -121 -57 -62 -88 -135 -99 -235
-14 -116 -13 -1296 1 -1395 19 -142 84 -241 198 -301 87 -47 176 -65 321 -65
276 -1 435 93 494 292 11 38 16 95 16 188 l0 133 -109 0 -109 0 -4 -132 c-4
-153 -19 -196 -85 -240 -57 -39 -108 -51 -208 -51 -111 0 -182 21 -235 72 -59
56 -63 79 -67 429 l-5 312 412 0 411 0 -3 413 -3 412 -32 67 c-79 168 -225
239 -487 237 -76 0 -156 -7 -190 -15z m347 -190 c62 -22 98 -53 123 -108 23
-50 24 -57 24 -338 l0 -288 -301 0 -301 0 5 283 c2 174 8 296 16 318 35 110
154 165 326 152 38 -3 87 -12 108 -19z"/>
<path d="M18045 6790 c-158 -33 -263 -115 -317 -248 l-23 -57 0 -745 c0 -841
-4 -795 79 -907 84 -113 224 -167 436 -166 197 0 318 39 405 129 84 86 115
189 115 376 l0 108 -110 0 -110 0 0 -93 c0 -225 -55 -303 -233 -327 -178 -25
-317 36 -352 154 -23 76 -22 1381 0 1448 40 116 175 173 352 148 121 -16 179
-57 213 -147 17 -46 20 -78 20 -229 l0 -175 108 3 107 3 3 169 c1 93 -2 194
-8 224 -31 169 -141 280 -325 327 -64 16 -288 19 -360 5z"/>
<path d="M23155 6786 c-97 -31 -207 -114 -256 -193 -12 -19 -24 -31 -28 -28
-3 4 -22 48 -42 98 l-37 92 -46 3 -46 3 0 -1025 0 -1026 110 0 110 0 0 818 c0
940 -8 857 103 966 101 99 207 136 330 116 78 -12 121 -41 149 -98 l23 -47 3
-877 2 -878 110 0 111 0 -3 898 -3 897 -23 57 c-47 116 -133 191 -257 223 -72
18 -253 19 -310 1z"/>
<path d="M24603 6780 c-158 -41 -252 -125 -295 -262 -23 -75 -24 -236 -3 -327
29 -121 54 -152 425 -521 221 -219 353 -358 364 -382 20 -46 36 -127 36 -186
0 -106 -53 -186 -148 -223 -47 -19 -76 -23 -167 -23 -100 0 -116 2 -173 28
-48 22 -71 40 -95 75 l-32 46 -3 183 -4 182 -109 0 -109 0 0 -177 c0 -193 10
-252 54 -326 51 -88 135 -145 259 -176 265 -68 561 -5 667 140 91 126 106 369
33 533 -42 92 -88 143 -411 455 -166 161 -314 308 -328 326 -37 49 -54 116
-54 213 0 104 23 159 83 203 53 39 104 52 207 52 144 2 225 -36 272 -126 20
-38 23 -61 26 -214 l4 -173 109 0 109 0 0 153 c0 179 -9 246 -45 326 -47 103
-141 174 -276 206 -93 22 -304 19 -396 -5z"/>
<path d="M28665 6790 c-175 -36 -294 -144 -329 -299 -14 -60 -16 -166 -16
-755 0 -705 2 -742 41 -833 22 -53 99 -136 154 -168 77 -46 187 -69 325 -68
254 0 398 69 475 228 34 68 45 137 45 271 l0 114 -110 0 -110 0 0 -108 c0
-178 -32 -243 -145 -293 -73 -32 -237 -32 -313 1 -68 29 -117 86 -131 152 -7
28 -11 174 -11 343 l0 295 410 0 410 0 0 378 c0 408 -6 464 -55 547 -52 89
-153 158 -276 189 -70 17 -290 21 -364 6z m315 -192 c77 -24 127 -76 149 -154
7 -24 11 -147 11 -311 l0 -273 -300 0 -300 0 0 271 c0 164 4 287 11 314 14 54
65 116 116 140 70 34 225 40 313 13z"/>
<path d="M30347 6786 c-78 -28 -147 -101 -194 -206 l-25 -55 -45 118 -46 117
-48 0 -49 0 0 -1025 0 -1025 109 0 110 0 3 788 c4 713 6 793 22 847 50 172
146 270 266 270 68 0 114 -29 141 -89 15 -34 19 -66 19 -188 l0 -148 105 0
105 0 0 153 c0 174 -14 245 -61 319 -35 55 -102 102 -173 123 -61 18 -188 19
-239 1z"/>
<path d="M8950 6665 l0 -95 75 0 75 0 0 -835 0 -835 -75 0 -75 0 0 -95 0 -95
265 0 265 0 0 95 0 95 -80 0 -80 0 0 835 0 835 80 0 80 0 0 95 0 95 -265 0
-265 0 0 -95z"/>
<path d="M14720 6665 l0 -95 205 0 205 0 0 -930 0 -930 110 0 110 0 0 930 0
930 205 0 206 0 -3 93 -3 92 -517 3 -518 2 0 -95z"/>
<path d="M19300 5735 l0 -1025 110 0 110 0 0 470 0 470 310 0 310 0 0 -470 0
-470 110 0 110 0 0 1025 0 1025 -110 0 -110 0 0 -455 0 -455 -310 0 -310 0 -2
453 -3 452 -107 3 -108 3 0 -1026z"/>
<path d="M21620 6665 l0 -95 80 0 80 0 0 -835 0 -835 -80 0 -80 0 0 -95 0 -95
270 0 270 0 0 95 0 95 -80 0 -80 0 0 835 0 835 80 0 81 0 -3 93 -3 92 -267 3
-268 2 0 -95z"/>
<path d="M25927 6753 c-4 -3 -7 -465 -7 -1025 l0 -1018 110 0 110 0 0 1025 0
1025 -103 0 c-57 0 -107 -3 -110 -7z"/>
<path d="M26780 5736 l0 -1026 289 0 c215 0 309 4 368 15 196 37 311 150 343
335 7 44 10 271 8 715 -3 645 -4 650 -26 709 -49 130 -138 208 -288 252 -48
14 -116 18 -376 21 l-318 5 0 -1026z m645 811 c50 -23 91 -61 118 -112 22 -40
22 -46 25 -669 2 -427 -1 -646 -8 -682 -16 -74 -56 -125 -121 -154 -50 -23
-69 -25 -246 -28 l-193 -4 0 837 0 837 193 -4 c156 -3 200 -7 232 -21z"/>
<path d="M7065 5287 c-27 -13 -103 -49 -167 -81 -148 -73 -151 -86 -38 -126
19 -7 49 -18 65 -25 17 -7 50 -18 75 -25 25 -7 74 -23 110 -36 36 -13 84 -24
107 -24 23 0 44 -4 48 -10 3 -6 14 -6 28 0 12 5 34 11 50 14 15 4 27 12 27 18
0 6 -19 37 -43 67 -24 31 -71 95 -106 144 -52 73 -87 109 -103 107 -2 -1 -25
-11 -53 -23z m-35 -142 c-7 -8 -10 -25 -6 -40 4 -14 3 -25 0 -25 -19 0 -84 24
-84 31 0 10 69 48 89 49 11 0 11 -3 1 -15z"/>
<path d="M6044 4866 c-4 -11 11 -41 45 -86 28 -39 51 -74 51 -79 0 -13 -57
-31 -99 -31 -54 0 -65 -11 -57 -56 13 -67 28 -81 95 -89 47 -5 64 -3 85 10 47
31 56 16 56 -87 l0 -94 60 -52 c33 -29 64 -51 69 -48 4 3 11 36 15 73 4 38 11
106 16 153 4 47 11 108 15 135 6 46 3 56 -32 121 -64 120 -62 117 -134 125
-35 4 -90 10 -121 14 -49 7 -59 5 -64 -9z"/>
<path d="M5700 4703 c-58 -19 -114 -39 -125 -43 -62 -24 -105 -44 -105 -48 0
-12 96 -122 107 -122 11 0 52 35 200 174 95 89 87 94 -77 39z"/>
<path d="M5281 4503 c-35 -33 -42 -45 -47 -88 -10 -90 -11 -92 -69 -121 -60
-29 -71 -56 -25 -62 14 -2 29 -8 35 -13 21 -21 72 -9 116 28 77 66 74 59 71
148 -3 90 -13 137 -28 142 -6 2 -30 -13 -53 -34z"/>
<path d="M5625 4277 c-27 -5 -80 -11 -117 -14 -58 -4 -68 -8 -73 -26 -4 -12
-10 -31 -14 -42 -17 -43 -31 -92 -31 -111 0 -19 38 -50 239 -201 31 -23 61
-42 67 -43 15 0 33 46 72 185 7 22 23 75 36 118 14 43 22 85 19 92 -10 29
-129 54 -198 42z"/>
<path d="M5065 4019 c-22 -17 -57 -39 -78 -50 -45 -24 -55 -43 -33 -68 9 -10
16 -24 16 -32 0 -20 -187 -216 -197 -206 -4 5 3 27 15 50 30 57 28 94 -7 137
-28 33 -30 34 -57 20 -15 -8 -56 -42 -90 -75 l-62 -60 5 -165 6 -165 36 -45
c32 -41 122 -137 226 -245 22 -23 60 -65 85 -93 24 -29 55 -59 67 -68 22 -14
27 -13 81 26 72 50 94 51 112 5 28 -72 38 -72 119 -3 39 33 79 74 87 89 10 20
22 29 39 29 17 0 36 16 70 59 l45 60 -2 273 -3 273 -100 72 c-55 40 -144 104
-197 143 -55 40 -107 70 -120 70 -13 0 -41 -14 -63 -31z"/>
<path d="M4158 3865 c-20 -14 -41 -25 -46 -25 -8 0 -50 -100 -66 -156 -8 -26
11 -39 108 -78 38 -15 77 -37 86 -49 18 -21 18 -22 39 -3 12 11 21 23 21 27 0
8 41 73 60 96 5 7 10 15 10 18 0 4 11 21 25 39 32 42 31 50 -5 96 -50 63 -166
80 -232 35z m142 -91 c0 -20 -50 -121 -67 -135 -14 -12 -85 12 -122 41 -19 15
-19 16 2 63 l21 47 83 0 c69 0 83 -3 83 -16z"/>
<path d="M3530 3168 l-35 -24 -3 -131 c-2 -128 -2 -132 20 -144 52 -28 89 -29
135 -4 36 21 47 23 69 13 20 -10 30 -9 54 5 17 11 46 17 74 15 37 -1 52 4 72
23 24 23 26 23 39 6 13 -18 15 -18 52 2 53 27 60 37 68 107 l7 61 -44 37 c-40
35 -46 37 -88 31 -89 -13 -249 -4 -355 20 -23 5 -39 1 -65 -17z m235 -48 c44
-4 108 -6 143 -3 l62 6 0 -29 c0 -24 -8 -33 -50 -57 -27 -15 -54 -36 -60 -46
-8 -16 -15 -17 -59 -8 -41 8 -64 6 -125 -11 -41 -11 -77 -18 -80 -14 -9 8 -7
167 1 176 5 4 26 5 48 2 22 -4 76 -11 120 -16z"/>
<path d="M5148 2670 c-21 -20 -38 -42 -38 -49 0 -7 16 -37 36 -67 31 -46 40
-54 68 -54 52 0 76 24 76 77 0 41 -5 50 -44 89 -24 24 -47 43 -52 43 -5 -1
-26 -19 -46 -39z"/>
<path d="M4128 2157 c-13 -14 -39 -55 -57 -91 -32 -64 -32 -65 -15 -101 22
-48 31 -51 65 -26 16 12 33 20 38 17 4 -3 18 -33 30 -66 12 -33 26 -60 30 -60
5 0 20 9 34 20 32 25 35 25 64 -1 18 -18 25 -20 38 -9 8 7 15 18 15 24 0 6 25
40 55 75 l55 65 -28 35 c-14 20 -46 54 -69 77 -39 38 -47 41 -114 48 -40 3
-83 9 -95 12 -17 4 -30 -1 -46 -19z m179 -38 c29 -10 113 -97 113 -116 0 -5
-13 -22 -30 -38 -28 -27 -31 -27 -48 -12 -21 19 -45 22 -72 7 -22 -12 -31 -2
-55 62 -22 60 -37 73 -64 59 -19 -11 -19 -9 -10 19 11 29 13 30 73 30 35 0 77
-5 93 -11z"/>
</g>
</svg>
